<svg width="291" height="291" viewBox="0 0 291 291" fill="none" xmlns="http://www.w3.org/2000/svg">
<path d="M51.4479 157.986C44.8595 162.814 40.9219 170.576 40.9219 178.747V179.602C40.9219 191.405 45.255 202.586 52.9029 211.316C45.1687 221.033 40.9219 233.014 40.9219 245.531V281.906C40.9219 284.416 42.9589 286.453 45.4688 286.453H245.531C248.041 286.453 250.078 284.416 250.078 281.906V245.531C250.078 226.357 240.007 208.674 223.761 198.717L220.128 179.351C215.867 156.603 213.703 133.342 213.703 110.212C213.703 103.291 213.317 96.2937 212.553 89.4143C210.229 68.4941 198.853 49.8065 181.343 38.1346C171.963 31.8781 161.223 28.2315 150.047 27.4495V9.09375H140.953V27.4268C129.841 28.1088 118.928 31.287 109.134 36.7251L108.634 37.0025C91.665 46.4327 78.761 61.7102 72.3044 80.0159L67.6802 93.12C61.9966 109.261 59.1094 126.117 59.1094 143.227C59.1094 148.951 56.354 154.394 51.4479 157.986ZM50.0156 245.531C50.0156 235.405 53.3303 225.684 59.4095 217.709C64.9976 222.92 68.2031 230.154 68.2031 237.847C68.2031 246.927 72.5408 255.603 79.8068 261.054C86.0087 265.706 93.6884 268.266 101.441 268.266C110.148 268.266 118.864 266.206 126.644 262.314C130.759 260.259 135.365 259.172 139.962 259.172H140.953V277.359H50.0156V245.531ZM240.984 245.531V277.359H150.047V245.531H167.912C189.859 245.531 210.493 236.983 226.012 221.465C227.071 220.405 227.544 218.887 227.266 217.413L226.234 211.898C235.483 220.478 240.984 232.595 240.984 245.531ZM176.296 45.7006C191.564 55.8765 201.486 72.1771 203.509 90.4146C204.237 96.9621 204.605 103.623 204.605 110.212C204.605 133.901 206.819 157.727 211.184 181.025L217.873 216.69C204.287 229.44 186.636 236.438 167.912 236.438H150.047V36.5751C159.418 37.3389 168.416 40.4445 176.296 45.7006ZM57.1133 165.111C64.0564 160.018 68.2031 151.838 68.2031 143.227C68.2031 127.149 70.9131 111.312 76.2602 96.1482L80.8844 83.0441C86.5998 66.8345 98.0261 53.303 113.058 44.955L113.554 44.6776C121.993 39.9852 131.382 37.2162 140.953 36.5432V250.078H139.962C133.96 250.078 127.949 251.497 122.575 254.179C116.05 257.449 108.743 259.172 101.441 259.172C95.6435 259.172 89.8963 257.258 85.263 253.779C80.2751 250.037 77.2969 244.081 77.2969 237.847C77.2969 226.93 72.4863 216.659 64.0973 209.67C55.149 202.213 50.0156 191.251 50.0156 179.602V178.747C50.0156 173.463 52.5619 168.444 57.1133 165.111Z" fill="#EFCC24"/>
<path d="M109.125 155.144V168.234H118.219V155.144C118.219 147.71 115.322 140.721 110.066 135.465C106.529 131.928 104.578 127.222 104.578 122.22C104.574 114.354 106.433 106.474 109.957 99.4356L113.19 92.9745L105.06 88.9005L101.827 95.3616C97.6714 103.66 95.4798 112.949 95.4844 122.225C95.4844 129.654 98.3807 136.638 103.637 141.894C107.174 145.432 109.125 150.142 109.125 155.144Z" fill="#EFCC24"/>
<path d="M81.5937 203.845C84.5992 205.846 86.3906 209.197 86.3906 212.807V222.797H95.4844V212.807C95.4844 206.151 92.1788 199.972 86.6407 196.279C83.6352 194.279 81.8438 190.928 81.8438 187.318C81.8438 181.684 83.4943 176.228 86.6225 171.535L90.1736 166.206L82.6076 161.164L79.0565 166.493C74.9279 172.681 72.75 179.883 72.75 187.318C72.75 193.979 76.0556 200.153 81.5937 203.845Z" fill="#EFCC24"/>
<path d="M103.246 228.676L96.8164 235.105C103.537 241.83 112.476 245.531 121.988 245.531H127.312V236.438H121.988C114.904 236.438 108.252 233.682 103.246 228.676Z" fill="#EFCC24"/>
<path d="M114.436 68.4305C118.328 62.5968 124.839 59.1094 131.86 59.1094V50.0156C121.797 50.0156 112.453 55.0172 106.874 63.388L105.347 65.6796L112.913 70.7221L114.436 68.4305Z" fill="#EFCC24"/>
<path d="M186.422 113.995V186.422H195.515V113.995C195.515 92.0469 186.967 71.4132 171.449 55.8947L165.02 62.324C178.819 76.1283 186.422 94.4749 186.422 113.995Z" fill="#EFCC24"/>
<path d="M234 40.3672C241.439 47.8058 245.531 57.6908 245.531 68.2031C245.531 70.713 247.568 72.75 250.078 72.75C252.588 72.75 254.625 70.713 254.625 68.2031C254.625 57.6908 258.717 47.8058 266.156 40.3672L271.48 35.0428C272.639 33.8833 273.085 32.1919 272.644 30.6096C272.207 29.0318 270.953 27.8087 269.361 27.4131L268.825 27.2812C260.463 25.1897 254.625 17.7146 254.625 9.09375C254.625 6.58388 252.588 4.54688 250.078 4.54688C247.568 4.54688 245.531 6.58388 245.531 9.09375C245.531 17.7146 239.693 25.1897 231.336 27.2812L230.79 27.4177C229.199 27.8132 227.948 29.0318 227.507 30.6141C227.066 32.1964 227.512 33.8879 228.671 35.0473L234 40.3672ZM250.078 24.3622C252.579 28.1724 256.002 31.3598 260.095 33.5696L259.726 33.9379C255.68 37.9846 252.438 42.6179 250.078 47.6467C247.718 42.6179 244.476 37.9846 240.429 33.9379L240.061 33.5696C244.153 31.3552 247.577 28.1724 250.078 24.3622Z" fill="#EFCC24"/>
<path d="M31.8281 68.2031H40.9219V86.3906H31.8281V68.2031Z" fill="#EFCC24"/>
<path d="M18.1875 95.4844H31.8281V104.578H18.1875V95.4844Z" fill="#EFCC24"/>
<path d="M40.9219 95.4844H54.5625V104.578H40.9219V95.4844Z" fill="#EFCC24"/>
<path d="M31.8281 113.672H40.9219V131.859H31.8281V113.672Z" fill="#EFCC24"/>
</svg>
