<svg width="20" height="20" viewBox="0 0 20 20" fill="none" xmlns="http://www.w3.org/2000/svg">
<path d="M7.49731 18.5452C6.61939 19.1116 5.57323 19.3584 4.53474 19.2442C3.49625 19.13 2.52875 18.6616 1.79494 17.918L1.15343 17.2907C0.872179 17.003 0.714705 16.6167 0.714705 16.2144C0.714705 15.8121 0.872179 15.4257 1.15343 15.1381L3.87631 12.4437C4.16157 12.1633 4.54553 12.0063 4.9455 12.0063C5.34546 12.0063 5.72943 12.1633 6.01469 12.4437C6.30237 12.7249 6.6887 12.8824 7.09101 12.8824C7.49333 12.8824 7.87966 12.7249 8.16734 12.4437L12.4441 8.16692C12.5868 8.02632 12.7001 7.85877 12.7774 7.67399C12.8547 7.48921 12.8946 7.29091 12.8946 7.0906C12.8946 6.89029 12.8547 6.69199 12.7774 6.50721C12.7001 6.32243 12.5868 6.15488 12.4441 6.01428C12.1638 5.72901 12.0067 5.34505 12.0067 4.94509C12.0067 4.54512 12.1638 4.16116 12.4441 3.87589L15.1527 1.16727C15.4404 0.88602 15.8267 0.728546 16.2291 0.728546C16.6314 0.728546 17.0177 0.88602 17.3054 1.16727L17.9326 1.80878C18.6763 2.5426 19.1446 3.51009 19.2589 4.54858C19.3731 5.58707 19.1263 6.63323 18.5599 7.51115C15.6089 11.8602 11.854 15.6054 7.49731 18.5452Z" stroke="#EFCC24" stroke-linecap="round" stroke-linejoin="round"/>
</svg>
